# xmcd
# 
# Track frame offsets:
#     150
#     14618
#     32781
#     58640
#     76876
#     97413
#     113219
#     141282
#     154536
#     169090
#     185217
#     203768
#     209225
#     225093
# 
# Disc length: 3252
# 
# Revision: 0
# Processed by: cddbd v1.5.2PL0 Copyright (c) Steve Scherf et al.
# Submitted via: fre:ac v1.0.27
# 
DISCID=c50cb20e
DTITLE=Neil Diamond - Melody Road
DYEAR=2014
DGENRE=
TTITLE0=Melody Road
TTITLE1=First Time
TTITLE2=Seongah and Jimmy
TTITLE3=Something Blue
TTITLE4=Nothing But A Heartache
TTITLE5=In Better Days
TTITLE6=Ooo Do I Wanna Be Yours
TTITLE7=Alone At The Ball
TTITLE8=Sunny Disposition
TTITLE9=Marry Me Now
TTITLE10=The Art of Love
TTITLE11=Melody Road (Reprise)
TTITLE12=Remember
TTITLE13=Something
EXTD=
EXTT0=
EXTT1=
EXTT2=
EXTT3=
EXTT4=
EXTT5=
EXTT6=
EXTT7=
EXTT8=
EXTT9=
EXTT10=
EXTT11=
EXTT12=
EXTT13=
PLAYORDER=
